# xmcd
#
# Track frame offsets: 
#        183
#        18645
#        57628
#        87043
#        122435
#        144928
#        179380
#        202490
#        228463
#        253665
#
# Disc length: 3540 seconds
#
# Revision: 1
# Processed by: cddbd v1.5.2PL0 Copyright (c) Steve Scherf et al.
# Submitted via: ExactAudioCopy v0.95b4
#
DISCID=8e0dd20a
DTITLE=Sebastian Whittaker - Seachin' For The Truth
DYEAR=1991
DGENRE=Jazz
TTITLE0=Sum Drum
TTITLE1=Searchin' for the Truth
TTITLE2=Tropicsville
TTITLE3=Bastian's Bounce
TTITLE4=Blue Sky
TTITLE5=Caravan
TTITLE6=Hodge Podge
TTITLE7=Watchin' Out For Benny
TTITLE8=Minor
TTITLE9=Lift Every Voice and Sing
EXTD=
EXTT0=
EXTT1=
EXTT2=
EXTT3=
EXTT4=
EXTT5=
EXTT6=
EXTT7=
EXTT8=
EXTT9=
PLAYORDER=
